# xmcd
#
# Track frame offsets: 
#        150
#        10725
#        18557
#        23516
#        32050
#        40064
#        47713
#        60097
#        67188
#        71635
#        78073
#        85103
#        94072
#        101196
#        106726
#
# Disc length: 1489 seconds
#
# Revision: 0
# Processed by: cddbd v1.5.2PL0 Copyright (c) Steve Scherf et al.
# Submitted via: ExactAudioCopyFreeDBPlugin 1.0
#
DISCID=ad05cf0f
DTITLE=Earl Sweatshirt - Some Rap Songs
DYEAR=2018
DGENRE=Rap
TTITLE0=Shattered Dreams
TTITLE1=Red Water
TTITLE2=Cold Summers
TTITLE3=Nowhere2go
TTITLE4=December 24
TTITLE5=Earl Sweatshirt ft. Standing On The Corner - Ontheway!
TTITLE6=Earl Sweatshirt ft. Navy Blue - The Mint
TTITLE7=The Bends
TTITLE8=Loosie
TTITLE9=Azucar
TTITLE10=Eclipse
TTITLE11=Veins
TTITLE12=Earl Sweatshirt ft. Cheryl Harris and Keorapetse Kgositsile - P
TTITLE12=laying Possum
TTITLE13=Peanut
TTITLE14=Riot!
EXTD=
EXTT0=
EXTT1=
EXTT2=
EXTT3=
EXTT4=
EXTT5=
EXTT6=
EXTT7=
EXTT8=
EXTT9=
EXTT10=
EXTT11=
EXTT12=
EXTT13=
EXTT14=
PLAYORDER=
